<svg width="839" height="88" viewBox="0 0 839 88" fill="none" xmlns="http://www.w3.org/2000/svg">
<path d="M31.8125 79.6133C31.8125 81.8398 31.1484 83.4609 29.8203 84.4766C28.5312 85.4922 26.832 86 24.7227 86H7.78906C5.67969 86 3.96094 85.5117 2.63281 84.5352C1.30469 83.5195 0.640625 81.8789 0.640625 79.6133C0.640625 77.7383 1.12891 76.3516 2.10547 75.4531C3.12109 74.5156 4.23438 73.4805 5.44531 72.3477C6.53906 71.332 7.35938 70.1992 7.90625 68.9492C8.45312 67.6992 8.96094 66.3906 9.42969 65.0234L22.7305 25.1211C22.9648 24.457 23.1797 23.793 23.375 23.1289C23.6094 22.4258 23.7266 21.7031 23.7266 20.9609C23.7266 20.0625 23.4141 19.3594 22.7891 18.8516C22.2031 18.3437 21.5195 17.8359 20.7383 17.3281C19.957 16.7813 19.2539 16.0586 18.6289 15.1602C18.043 14.2617 17.75 12.9727 17.75 11.293C17.75 9.06641 18.3945 7.44531 19.6836 6.42969C21.0117 5.41406 22.7305 4.90625 24.8398 4.90625H67.0273C69.1367 4.90625 70.8359 5.41406 72.125 6.42969C73.4531 7.40625 74.1172 9.02734 74.1172 11.293C74.1172 12.8945 73.8438 14.1445 73.2969 15.043C72.75 15.9023 72.125 16.5859 71.4219 17.0938C70.7188 17.6016 70.0938 18.1289 69.5469 18.6758C69 19.2227 68.7266 19.9648 68.7266 20.9023C68.7266 21.5664 68.8047 22.2305 68.9609 22.8945C69.1562 23.5195 69.3516 24.1445 69.5469 24.7695L81.6758 60.2188C82.3008 62.0547 82.7891 63.7148 83.1406 65.1992C83.5312 66.6836 84.0977 68.0703 84.8398 69.3594C85.582 70.6094 86.793 71.8789 88.4727 73.168C89.8008 74.1445 90.7383 75.043 91.2852 75.8633C91.832 76.6445 92.1055 77.8945 92.1055 79.6133C92.1055 81.8789 91.4414 83.5195 90.1133 84.5352C88.8242 85.5117 87.125 86 85.0156 86H55.0742C52.9648 86 51.2461 85.5117 49.918 84.5352C48.5898 83.5195 47.9258 81.8789 47.9258 79.6133C47.9258 78.0117 48.2578 76.7617 48.9219 75.8633C49.625 74.9648 50.4258 74.2617 51.3242 73.7539C52.2617 73.207 53.0625 72.7188 53.7266 72.2891C54.4297 71.8203 54.7812 71.2539 54.7812 70.5898C54.7812 70.043 54.7031 69.4961 54.5469 68.9492C54.4297 68.4023 54.2734 67.875 54.0781 67.3672L52.2031 61.3906H24.7812L24.4883 62.2109C24.1758 63.1484 23.7656 64.2031 23.2578 65.375C22.75 66.5078 22.4961 67.5625 22.4961 68.5391C22.4961 69.6328 22.9648 70.5312 23.9023 71.2344C24.8398 71.8984 25.9141 72.5625 27.125 73.2266C28.375 73.8516 29.4688 74.6523 30.4062 75.6289C31.3438 76.6055 31.8125 77.9336 31.8125 79.6133ZM29.0586 48.3242H48.043L38.668 18.9688L29.0586 48.3242ZM126.266 24.125C127.867 24.125 129.078 24.6914 129.898 25.8242C130.758 26.918 131.188 28.207 131.188 29.6914V35.082C134.273 32.2305 137.672 29.6914 141.383 27.4648C145.094 25.2383 148.766 24.125 152.398 24.125C156.188 24.125 159.332 25.0625 161.832 26.9375C164.332 28.8125 166.207 31.2539 167.457 34.2617C168.746 37.2695 169.391 40.5117 169.391 43.9883V68.3633C169.391 69.457 169.43 70.5312 169.508 71.5859C169.625 72.6406 170.055 73.6367 170.797 74.5742C171.695 75.707 172.477 76.5859 173.141 77.2109C173.844 77.8359 174.195 78.9883 174.195 80.668C174.195 82.3867 173.668 83.7148 172.613 84.6523C171.559 85.5508 170.191 86 168.512 86H144.02C142.379 86 141.109 85.5117 140.211 84.5352C139.352 83.5586 138.922 82.2695 138.922 80.668C138.922 79.1836 139.254 78.0312 139.918 77.2109C140.621 76.3516 141.305 75.4727 141.969 74.5742C142.672 73.6367 143.023 72.3281 143.023 70.6484V50.3164C143.023 48.4805 142.652 46.6836 141.91 44.9258C141.207 43.168 139.723 42.2891 137.457 42.2891C136.09 42.2891 134.918 42.5625 133.941 43.1094C132.965 43.6172 132.047 44.2812 131.188 45.1016V69.0664C131.188 70.1211 131.227 71.1953 131.305 72.2891C131.383 73.3438 131.773 74.3203 132.477 75.2188C133.297 76.1953 133.98 76.9961 134.527 77.6211C135.074 78.207 135.348 79.2227 135.348 80.668C135.348 82.2695 134.898 83.5586 134 84.5352C133.141 85.5117 131.891 86 130.25 86H105.758C104.078 86 102.711 85.5508 101.656 84.6523C100.602 83.7148 100.074 82.3867 100.074 80.668C100.074 79.3789 100.309 78.3828 100.777 77.6797C101.285 76.9375 101.852 76.2539 102.477 75.6289C103.102 75.0039 103.648 74.2422 104.117 73.3438C104.625 72.4453 104.879 71.2148 104.879 69.6523V47.9141C104.879 46.1562 104.605 44.8281 104.059 43.9297C103.512 43.0312 102.867 42.3281 102.125 41.8203C101.383 41.2734 100.738 40.6875 100.191 40.0625C99.6445 39.4375 99.3711 38.5 99.3711 37.25C99.3711 35.7266 99.8789 34.5352 100.895 33.6758C101.91 32.7773 103.043 32.0742 104.293 31.5664L116.949 26.4688C118.434 25.8437 119.938 25.2969 121.461 24.8281C123.023 24.3594 124.625 24.125 126.266 24.125ZM206.773 87.6992C200.094 87.6992 194.82 86.1562 190.953 83.0703C187.125 79.9453 185.211 74.8672 185.211 67.8359V42.3477C185.211 40.668 184.84 39.418 184.098 38.5977C183.355 37.7773 182.496 37.1133 181.52 36.6055C180.543 36.0586 179.684 35.4141 178.941 34.6719C178.199 33.8906 177.828 32.7188 177.828 31.1562C177.828 29.5547 178.395 28.3047 179.527 27.4062C180.66 26.4688 181.988 26 183.512 26H186.148C187.281 26 188.395 25.4336 189.488 24.3008C190.621 23.1289 191.754 21.6836 192.887 19.9648C194.059 18.2461 195.27 16.5469 196.52 14.8672C197.809 13.1484 199.176 11.7227 200.621 10.5898C202.066 9.41797 203.648 8.83203 205.367 8.83203C207.32 8.83203 208.844 9.37891 209.938 10.4727C211.031 11.5664 211.578 13.0898 211.578 15.043V26H224.879C226.363 26 227.633 26.3516 228.688 27.0547C229.742 27.7578 230.27 28.9297 230.27 30.5703C230.27 32.7578 229.566 34.418 228.16 35.5508C226.793 36.6836 225.133 37.4453 223.18 37.8359C221.227 38.1875 219.391 38.3633 217.672 38.3633H211.578V61.5664C211.578 63.4805 211.949 65.2969 212.691 67.0156C213.434 68.6953 214.957 69.5352 217.262 69.5352C218.785 69.5352 220.074 69.1055 221.129 68.2461C222.223 67.3477 223.238 66.4688 224.176 65.6094C225.152 64.75 226.188 64.3203 227.281 64.3203C228.297 64.3203 229 64.8086 229.391 65.7852C229.82 66.7617 230.035 67.6406 230.035 68.4219C230.035 72.3672 228.844 75.7852 226.461 78.6758C224.078 81.5664 221.09 83.793 217.496 85.3555C213.941 86.918 210.367 87.6992 206.773 87.6992ZM262.438 24.125C264.039 24.125 265.27 24.6719 266.129 25.7656C267.027 26.8594 267.477 28.168 267.477 29.6914V68.3633C267.477 69.457 267.516 70.5703 267.594 71.7031C267.711 72.7969 268.16 73.7539 268.941 74.5742C269.957 75.668 270.797 76.5273 271.461 77.1523C272.164 77.7773 272.516 78.9492 272.516 80.668C272.516 82.3867 271.969 83.7148 270.875 84.6523C269.82 85.5508 268.453 86 266.773 86H241.871C240.191 86 238.805 85.5508 237.711 84.6523C236.656 83.7539 236.129 82.4258 236.129 80.668C236.129 78.9883 236.461 77.8164 237.125 77.1523C237.789 76.4492 238.648 75.5898 239.703 74.5742C240.484 73.793 240.914 72.8164 240.992 71.6445C241.109 70.4727 241.168 69.3789 241.168 68.3633V47.9141C241.168 47.1328 241.109 46.332 240.992 45.5117C240.875 44.6523 240.543 43.9297 239.996 43.3438C239.84 43.1484 239.645 42.9922 239.41 42.875C239.215 42.7578 239.039 42.6211 238.883 42.4648C238.023 41.5664 237.223 40.8438 236.48 40.2969C235.777 39.7109 235.426 38.6953 235.426 37.25C235.426 35.6875 235.914 34.4766 236.891 33.6172C237.867 32.7578 239.02 32.0742 240.348 31.5664L253.004 26.4688C254.488 25.8828 256.031 25.3555 257.633 24.8867C259.234 24.3789 260.836 24.125 262.438 24.125ZM253.648 23.8906C251.148 23.8906 248.629 23.5195 246.09 22.7773C243.551 22.0352 241.422 20.8047 239.703 19.0859C238.023 17.3281 237.184 14.9648 237.184 11.9961C237.184 9.02734 238.043 6.70313 239.762 5.02344C241.48 3.30469 243.609 2.09375 246.148 1.39062C248.688 0.6875 251.188 0.335938 253.648 0.335938C256.109 0.335938 258.609 0.6875 261.148 1.39062C263.727 2.09375 265.875 3.30469 267.594 5.02344C269.352 6.70313 270.23 9.02734 270.23 11.9961C270.23 15.0039 269.371 17.3867 267.652 19.1445C265.934 20.8633 263.785 22.0937 261.207 22.8359C258.668 23.5391 256.148 23.8906 253.648 23.8906ZM313.531 45.6875H334.977C336.109 45.6875 337.066 45.9609 337.848 46.5078C338.668 47.0156 339.078 47.8945 339.078 49.1445C339.078 50.0039 338.922 50.8633 338.609 51.7227C338.336 52.582 338.082 53.4414 337.848 54.3008C337.496 55.5508 337.086 56.8398 336.617 58.168C336.148 59.457 335.484 60.5508 334.625 61.4492C333.766 62.3086 332.516 62.7383 330.875 62.7383H309.371C308.238 62.7383 307.262 62.4844 306.441 61.9766C305.66 61.4297 305.27 60.5312 305.27 59.2812C305.27 58.1875 305.426 57.1328 305.738 56.1172C306.09 55.1016 306.461 54.1055 306.852 53.1289V53.0117C307.008 52.7773 307.125 52.4258 307.203 51.957C307.516 50.3164 308.18 48.8711 309.195 47.6211C310.25 46.332 311.695 45.6875 313.531 45.6875ZM374.059 79.6133C374.059 77.582 374.469 76.0781 375.289 75.1016C376.109 74.125 377.066 73.3242 378.16 72.6992C379.254 72.0742 380.211 71.3711 381.031 70.5898C381.852 69.7695 382.262 68.5195 382.262 66.8398V24.0664C382.262 22.3477 381.852 21.0781 381.031 20.2578C380.211 19.4375 379.254 18.7344 378.16 18.1484C377.066 17.5234 376.109 16.7227 375.289 15.7461C374.469 14.7695 374.059 13.2852 374.059 11.293C374.059 9.10547 374.703 7.50391 375.992 6.48828C377.32 5.43359 379.02 4.90625 381.09 4.90625H416.012C424.762 4.90625 432.613 6.68359 439.566 10.2383C446.52 13.7539 452.008 18.7734 456.031 25.2969C460.094 31.8203 462.125 39.5938 462.125 48.6172C462.125 56.3906 460.309 63.0703 456.676 68.6562C453.043 74.2422 448.16 78.5391 442.027 81.5469C435.895 84.5156 429.098 86 421.637 86H381.09C378.98 86 377.281 85.4922 375.992 84.4766C374.703 83.4609 374.059 81.8398 374.059 79.6133ZM418.883 72.9336C421.773 72.9336 424.117 72.0547 425.914 70.2969C427.711 68.5391 429.078 66.332 430.016 63.6758C430.992 61.0195 431.656 58.2656 432.008 55.4141C432.359 52.5625 432.535 50.0625 432.535 47.9141C432.535 44.9062 432.262 41.6836 431.715 38.2461C431.168 34.7695 430.191 31.5078 428.785 28.4609C427.418 25.375 425.504 22.8555 423.043 20.9023C420.621 18.9492 417.496 17.9727 413.668 17.9727H411.09V63.793C411.09 66.4492 411.637 68.6367 412.73 70.3555C413.863 72.0742 415.914 72.9336 418.883 72.9336ZM495.641 24.125C497.242 24.125 498.473 24.6719 499.332 25.7656C500.23 26.8594 500.68 28.168 500.68 29.6914V68.3633C500.68 69.457 500.719 70.5703 500.797 71.7031C500.914 72.7969 501.363 73.7539 502.145 74.5742C503.16 75.668 504 76.5273 504.664 77.1523C505.367 77.7773 505.719 78.9492 505.719 80.668C505.719 82.3867 505.172 83.7148 504.078 84.6523C503.023 85.5508 501.656 86 499.977 86H475.074C473.395 86 472.008 85.5508 470.914 84.6523C469.859 83.7539 469.332 82.4258 469.332 80.668C469.332 78.9883 469.664 77.8164 470.328 77.1523C470.992 76.4492 471.852 75.5898 472.906 74.5742C473.688 73.793 474.117 72.8164 474.195 71.6445C474.312 70.4727 474.371 69.3789 474.371 68.3633V47.9141C474.371 47.1328 474.312 46.332 474.195 45.5117C474.078 44.6523 473.746 43.9297 473.199 43.3438C473.043 43.1484 472.848 42.9922 472.613 42.875C472.418 42.7578 472.242 42.6211 472.086 42.4648C471.227 41.5664 470.426 40.8438 469.684 40.2969C468.98 39.7109 468.629 38.6953 468.629 37.25C468.629 35.6875 469.117 34.4766 470.094 33.6172C471.07 32.7578 472.223 32.0742 473.551 31.5664L486.207 26.4688C487.691 25.8828 489.234 25.3555 490.836 24.8867C492.438 24.3789 494.039 24.125 495.641 24.125ZM486.852 23.8906C484.352 23.8906 481.832 23.5195 479.293 22.7773C476.754 22.0352 474.625 20.8047 472.906 19.0859C471.227 17.3281 470.387 14.9648 470.387 11.9961C470.387 9.02734 471.246 6.70313 472.965 5.02344C474.684 3.30469 476.812 2.09375 479.352 1.39062C481.891 0.6875 484.391 0.335938 486.852 0.335938C489.312 0.335938 491.812 0.6875 494.352 1.39062C496.93 2.09375 499.078 3.30469 500.797 5.02344C502.555 6.70313 503.434 9.02734 503.434 11.9961C503.434 15.0039 502.574 17.3867 500.855 19.1445C499.137 20.8633 496.988 22.0937 494.41 22.8359C491.871 23.5391 489.352 23.8906 486.852 23.8906ZM550.426 87.2305H541.285C538.746 87.2305 536.695 86.4688 535.133 84.9453C533.609 83.4219 532.379 81.5859 531.441 79.4375L514.977 41.9961C514.352 40.6289 513.824 39.5742 513.395 38.832C512.965 38.0898 512.145 37.2305 510.934 36.2539C510.035 35.5117 509.332 34.8086 508.824 34.1445C508.355 33.4805 508.121 32.5234 508.121 31.2734C508.121 29.5156 508.688 28.207 509.82 27.3477C510.992 26.4492 512.398 26 514.039 26H545.621C547.262 26 548.551 26.4688 549.488 27.4062C550.426 28.3438 550.895 29.6328 550.895 31.2734C550.895 32.6797 550.523 33.7539 549.781 34.4961C549.039 35.2383 548.18 35.8828 547.203 36.4297C546.227 36.9375 545.367 37.543 544.625 38.2461C543.883 38.9492 543.512 39.9844 543.512 41.3516C543.512 42.2109 543.609 43.0703 543.805 43.9297C544.039 44.75 544.312 45.5508 544.625 46.332L553.59 69.3008L562.203 47.2695C562.516 46.4102 562.77 45.5508 562.965 44.6914C563.199 43.793 563.316 42.8945 563.316 41.9961C563.316 40.4336 562.945 39.2812 562.203 38.5391C561.5 37.7578 560.66 37.1133 559.684 36.6055C558.707 36.0977 557.848 35.4727 557.105 34.7305C556.402 33.9492 556.051 32.7969 556.051 31.2734C556.051 29.5156 556.598 28.207 557.691 27.3477C558.785 26.4492 560.172 26 561.852 26H578.082C579.762 26 581.148 26.4297 582.242 27.2891C583.375 28.1484 583.941 29.4766 583.941 31.2734C583.941 32.7188 583.668 33.7734 583.121 34.4375C582.613 35.0625 581.852 35.8242 580.836 36.7227C579.352 38.0508 578.297 39.2617 577.672 40.3555C577.086 41.4492 576.422 42.8945 575.68 44.6914C573.18 50.5898 570.699 56.5273 568.238 62.5039C565.777 68.4414 563.16 74.3203 560.387 80.1406C559.332 82.2891 558.043 84.0078 556.52 85.2969C554.996 86.5859 552.965 87.2305 550.426 87.2305ZM615.641 24.125C622.086 24.125 627.73 25.4531 632.574 28.1094C637.457 30.7656 641.266 34.4961 644 39.3008C646.734 44.1055 648.102 49.75 648.102 56.2344C648.102 62.6016 646.598 68.1484 643.59 72.875C640.582 77.5625 636.539 81.2148 631.461 83.832C626.422 86.4102 620.816 87.6992 614.645 87.6992C608.16 87.6992 602.477 86.3711 597.594 83.7148C592.711 81.0195 588.902 77.25 586.168 72.4062C583.473 67.5234 582.125 61.8398 582.125 55.3555C582.125 49.0273 583.648 43.5195 586.695 38.832C589.742 34.1445 593.805 30.5312 598.883 27.9922C603.961 25.4141 609.547 24.125 615.641 24.125ZM618.98 74.75C619.957 74.75 620.641 74.2422 621.031 73.2266C621.461 72.2109 621.734 71.0977 621.852 69.8867C621.969 68.6367 622.027 67.6797 622.027 67.0156C622.027 64.7891 621.852 62.582 621.5 60.3945C621.148 58.168 620.699 55.9805 620.152 53.832C619.957 52.9727 619.586 51.6445 619.039 49.8477C618.492 48.0117 617.828 46.0977 617.047 44.1055C616.266 42.1133 615.406 40.4141 614.469 39.0078C613.531 37.6016 612.535 36.8984 611.48 36.8984C610.582 36.8984 609.918 37.4062 609.488 38.4219C609.098 39.4375 608.844 40.5703 608.727 41.8203C608.609 43.0312 608.551 43.9492 608.551 44.5742C608.551 45.6289 608.707 47.3281 609.02 49.6719C609.332 51.9766 609.781 54.5547 610.367 57.4062C610.992 60.2578 611.734 63.0117 612.594 65.668C613.453 68.2852 614.41 70.4531 615.465 72.1719C616.559 73.8906 617.73 74.75 618.98 74.75ZM686.012 51.2539V68.3633C686.012 70.6289 686.266 72.1523 686.773 72.9336C687.32 73.7148 688.727 74.3398 690.992 74.8086C692.984 75.1992 694.566 75.668 695.738 76.2148C696.949 76.7227 697.555 78.207 697.555 80.668C697.555 82.4258 697.027 83.7539 695.973 84.6523C694.918 85.5508 693.531 86 691.812 86H660.875C659.195 86 657.809 85.5508 656.715 84.6523C655.621 83.7539 655.074 82.4258 655.074 80.668C655.074 79.2617 655.328 78.207 655.836 77.5039C656.383 76.8008 656.988 76.1758 657.652 75.6289C658.355 75.043 658.961 74.3008 659.469 73.4023C660.016 72.4648 660.289 71.0586 660.289 69.1836V47.9141C660.289 46.1562 659.977 44.8477 659.352 43.9883C658.766 43.0898 658.082 42.3867 657.301 41.8789C656.559 41.3711 655.875 40.8047 655.25 40.1797C654.664 39.5156 654.371 38.5391 654.371 37.25C654.371 35.7266 654.859 34.5352 655.836 33.6758C656.852 32.7773 658.004 32.0742 659.293 31.5664L673.941 25.7656C674.879 25.375 675.836 25.0039 676.812 24.6523C677.789 24.3008 678.805 24.125 679.859 24.125C681.227 24.125 682.242 24.6523 682.906 25.707C683.57 26.7227 684.02 27.9141 684.254 29.2812C684.527 30.6094 684.723 31.7812 684.84 32.7969C684.957 33.5 685.074 34.2031 685.191 34.9062C685.309 35.6094 685.406 36.3125 685.484 37.0156C686.695 33.4219 688.551 30.375 691.051 27.875C693.59 25.375 697.086 24.125 701.539 24.125C704.703 24.125 707.184 24.9062 708.98 26.4688C710.816 28.0312 712.125 30.043 712.906 32.5039C713.688 34.9258 714.078 37.5039 714.078 40.2383C714.078 42.7773 713.746 45.2383 713.082 47.6211C712.418 49.9648 711.246 51.8984 709.566 53.4219C707.926 54.9453 705.602 55.707 702.594 55.707C699.312 55.707 696.91 55.1992 695.387 54.1836C693.902 53.168 692.945 51.918 692.516 50.4336C692.086 48.9492 691.852 47.4648 691.812 45.9805C691.812 44.4961 691.695 43.2461 691.461 42.2305C691.227 41.2148 690.523 40.707 689.352 40.707C688.297 40.707 687.535 41.4492 687.066 42.9336C686.598 44.3789 686.305 45.9414 686.188 47.6211C686.07 49.3008 686.012 50.5117 686.012 51.2539ZM774.371 43.3438C774.371 47.0156 773.043 49.8086 770.387 51.7227C767.73 53.6367 764.723 54.5938 761.363 54.5938C757.926 54.5938 755.172 53.6562 753.102 51.7812C751.031 49.9062 749.996 47.2109 749.996 43.6953C749.996 42.0938 749.781 40.4727 749.352 38.832C748.961 37.1914 747.691 36.3711 745.543 36.3711C743.902 36.3711 742.652 37.1719 741.793 38.7734C740.934 40.375 740.348 42.1719 740.035 44.1641C739.762 46.1562 739.625 47.7578 739.625 48.9688C739.625 52.3281 740.172 55.5312 741.266 58.5781C742.359 61.625 744.098 64.1055 746.48 66.0195C748.863 67.8945 751.949 68.832 755.738 68.832C757.965 68.832 760.172 68.3047 762.359 67.25C764.547 66.1562 766.48 65.082 768.16 64.0273C769.84 62.9727 771.012 62.4453 771.676 62.4453C772.887 62.4453 773.688 62.9336 774.078 63.9102C774.469 64.8477 774.664 65.7852 774.664 66.7227C774.664 70.2383 773.824 73.3047 772.145 75.9219C770.504 78.5391 768.316 80.7266 765.582 82.4844C762.887 84.2031 759.938 85.4922 756.734 86.3516C753.57 87.25 750.465 87.6992 747.418 87.6992C741.559 87.6992 736.285 86.4492 731.598 83.9492C726.949 81.4102 723.258 77.875 720.523 73.3438C717.828 68.8125 716.48 63.5781 716.48 57.6406C716.48 51.1953 717.789 45.4531 720.406 40.4141C723.023 35.375 726.734 31.4102 731.539 28.5195C736.383 25.5898 742.086 24.125 748.648 24.125C751.578 24.125 754.547 24.4961 757.555 25.2383C760.562 25.9414 763.336 27.0742 765.875 28.6367C768.414 30.1602 770.465 32.1523 772.027 34.6133C773.59 37.0352 774.371 39.9453 774.371 43.3438ZM838.707 47.2695C838.707 50.7461 837.672 53.3828 835.602 55.1797C833.57 56.9766 830.875 57.875 827.516 57.875H803.902C804.801 61.2344 806.402 64.0664 808.707 66.3711C811.012 68.6367 814.332 69.7695 818.668 69.7695C820.387 69.7695 822.086 69.418 823.766 68.7148C825.484 67.9727 827.086 67.1133 828.57 66.1367C830.094 65.1602 831.422 64.3203 832.555 63.6172C833.688 62.875 834.547 62.5039 835.133 62.5039C836.266 62.5039 837.086 62.9141 837.594 63.7344C838.102 64.5156 838.355 65.4141 838.355 66.4297C838.355 69.9844 837.516 73.1094 835.836 75.8047C834.195 78.4609 832.008 80.668 829.273 82.4258C826.578 84.1836 823.609 85.4922 820.367 86.3516C817.164 87.25 814 87.6992 810.875 87.6992C804.742 87.6992 799.332 86.4297 794.645 83.8906C789.957 81.3516 786.285 77.7969 783.629 73.2266C781.012 68.6172 779.703 63.207 779.703 56.9961C779.703 50.3555 780.973 44.5742 783.512 39.6523C786.09 34.7305 789.781 30.9219 794.586 28.2266C799.391 25.4922 805.152 24.125 811.871 24.125C816.52 24.125 820.875 25.0039 824.938 26.7617C829.039 28.5195 832.359 31.1172 834.898 34.5547C837.438 37.9922 838.707 42.2305 838.707 47.2695ZM802.848 48.8516C802.848 49.2812 802.848 49.7109 802.848 50.1406H808.941C810.426 50.1406 811.441 49.8086 811.988 49.1445C812.535 48.4414 812.809 47.3867 812.809 45.9805C812.809 45.043 812.691 43.8125 812.457 42.2891C812.223 40.7656 811.754 39.3984 811.051 38.1875C810.387 36.9766 809.41 36.3711 808.121 36.3711C806.949 36.3711 806.012 36.8594 805.309 37.8359C804.605 38.7734 804.078 39.9648 803.727 41.4102C803.375 42.8164 803.141 44.2031 803.023 45.5703C802.906 46.9375 802.848 48.0312 802.848 48.8516Z" fill="#1A3D94"/>
</svg>
