<svg width="204" height="182" viewBox="0 0 204 182" fill="none" xmlns="http://www.w3.org/2000/svg">
<path d="M102 172.249L106.399 180.907C105.039 181.625 103.531 182 102 182C100.469 182 98.9606 181.625 97.6013 180.907L97.4992 180.855L97.2697 180.725C95.9346 180.022 94.6167 179.285 93.3172 178.515C77.7774 169.498 63.1165 158.989 49.5337 147.133C26.0737 126.502 0 95.5496 0 58.4997C0 23.8679 26.5965 0 54.1875 0C73.9117 0 91.2007 10.426 102 26.2599C112.799 10.426 130.088 0 149.812 0C177.403 0 204 23.8679 204 58.4997C204 95.5496 177.926 126.502 154.466 147.133C139.732 159.978 123.735 171.235 106.73 180.725L106.501 180.855L106.424 180.894H106.399L102 172.249ZM54.1875 19.4999C37.1535 19.4999 19.125 34.6318 19.125 58.4997C19.125 86.4496 39.27 112.372 62.0287 132.365C74.4457 143.194 87.8276 152.817 102 161.108C116.172 152.817 129.554 143.194 141.971 132.365C164.73 112.372 184.875 86.4496 184.875 58.4997C184.875 34.6318 166.846 19.4999 149.812 19.4999C132.307 19.4999 116.548 32.3179 111.193 51.4278C110.629 53.471 109.426 55.2705 107.766 56.5521C106.107 57.8337 104.082 58.5273 102 58.5273C99.9182 58.5273 97.8934 57.8337 96.2339 56.5521C94.5744 55.2705 93.3711 53.471 92.8072 51.4278C87.4522 32.3179 71.6932 19.4999 54.1875 19.4999Z" fill="#1A3D94"/>
</svg>
