<svg width="249" height="53" viewBox="0 0 249 53" fill="none" xmlns="http://www.w3.org/2000/svg">
<path d="M64.4219 32.042C64.4219 32.376 64.3223 32.6191 64.123 32.7715C63.9297 32.9238 63.6748 33 63.3584 33H60.8184C60.502 33 60.2441 32.9268 60.0449 32.7803C59.8457 32.6279 59.7461 32.3818 59.7461 32.042C59.7461 31.7607 59.8193 31.5527 59.9658 31.418C60.1182 31.2773 60.2852 31.1221 60.4668 30.9521C60.6309 30.7998 60.7539 30.6299 60.8359 30.4424C60.918 30.2549 60.9941 30.0586 61.0645 29.8535L63.0596 23.8682C63.0947 23.7686 63.127 23.6689 63.1562 23.5693C63.1914 23.4639 63.209 23.3555 63.209 23.2441C63.209 23.1094 63.1621 23.0039 63.0684 22.9277C62.9805 22.8516 62.8779 22.7754 62.7607 22.6992C62.6436 22.6172 62.5381 22.5088 62.4443 22.374C62.3564 22.2393 62.3125 22.0459 62.3125 21.7939C62.3125 21.46 62.4092 21.2168 62.6025 21.0645C62.8018 20.9121 63.0596 20.8359 63.376 20.8359H69.7041C70.0205 20.8359 70.2754 20.9121 70.4688 21.0645C70.668 21.2109 70.7676 21.4541 70.7676 21.7939C70.7676 22.0342 70.7266 22.2217 70.6445 22.3564C70.5625 22.4854 70.4688 22.5879 70.3633 22.6641C70.2578 22.7402 70.1641 22.8193 70.082 22.9014C70 22.9834 69.959 23.0947 69.959 23.2354C69.959 23.335 69.9707 23.4346 69.9941 23.5342C70.0234 23.6279 70.0527 23.7217 70.082 23.8154L71.9014 29.1328C71.9951 29.4082 72.0684 29.6572 72.1211 29.8799C72.1797 30.1025 72.2646 30.3105 72.376 30.5039C72.4873 30.6914 72.6689 30.8818 72.9209 31.0752C73.1201 31.2217 73.2607 31.3564 73.3428 31.4795C73.4248 31.5967 73.4658 31.7842 73.4658 32.042C73.4658 32.3818 73.3662 32.6279 73.167 32.7803C72.9736 32.9268 72.7188 33 72.4023 33H67.9111C67.5947 33 67.3369 32.9268 67.1377 32.7803C66.9385 32.6279 66.8389 32.3818 66.8389 32.042C66.8389 31.8018 66.8887 31.6143 66.9883 31.4795C67.0938 31.3447 67.2139 31.2393 67.3486 31.1631C67.4893 31.0811 67.6094 31.0078 67.709 30.9434C67.8145 30.873 67.8672 30.7881 67.8672 30.6885C67.8672 30.6064 67.8555 30.5244 67.832 30.4424C67.8145 30.3604 67.791 30.2812 67.7617 30.2051L67.4805 29.3086H63.3672L63.3232 29.4316C63.2764 29.5723 63.2148 29.7305 63.1387 29.9062C63.0625 30.0762 63.0244 30.2344 63.0244 30.3809C63.0244 30.5449 63.0947 30.6797 63.2354 30.7852C63.376 30.8848 63.5371 30.9844 63.7188 31.084C63.9062 31.1777 64.0703 31.2979 64.2109 31.4443C64.3516 31.5908 64.4219 31.79 64.4219 32.042ZM64.0088 27.3486H66.8564L65.4502 22.9453L64.0088 27.3486ZM78.5898 23.7188C78.8301 23.7188 79.0117 23.8037 79.1348 23.9736C79.2637 24.1377 79.3281 24.3311 79.3281 24.5537V25.3623C79.791 24.9346 80.3008 24.5537 80.8574 24.2197C81.4141 23.8857 81.9648 23.7188 82.5098 23.7188C83.0781 23.7188 83.5498 23.8594 83.9248 24.1406C84.2998 24.4219 84.5811 24.7881 84.7686 25.2393C84.9619 25.6904 85.0586 26.1768 85.0586 26.6982V30.3545C85.0586 30.5186 85.0645 30.6797 85.0762 30.8379C85.0938 30.9961 85.1582 31.1455 85.2695 31.2861C85.4043 31.4561 85.5215 31.5879 85.6211 31.6816C85.7266 31.7754 85.7793 31.9482 85.7793 32.2002C85.7793 32.458 85.7002 32.6572 85.542 32.7979C85.3838 32.9326 85.1787 33 84.9268 33H81.2529C81.0068 33 80.8164 32.9268 80.6816 32.7803C80.5527 32.6338 80.4883 32.4404 80.4883 32.2002C80.4883 31.9775 80.5381 31.8047 80.6377 31.6816C80.7432 31.5527 80.8457 31.4209 80.9453 31.2861C81.0508 31.1455 81.1035 30.9492 81.1035 30.6973V27.6475C81.1035 27.3721 81.0479 27.1025 80.9365 26.8389C80.8311 26.5752 80.6084 26.4434 80.2686 26.4434C80.0635 26.4434 79.8877 26.4844 79.7412 26.5664C79.5947 26.6426 79.457 26.7422 79.3281 26.8652V30.46C79.3281 30.6182 79.334 30.7793 79.3457 30.9434C79.3574 31.1016 79.416 31.248 79.5215 31.3828C79.6445 31.5293 79.7471 31.6494 79.8291 31.7432C79.9111 31.8311 79.9521 31.9834 79.9521 32.2002C79.9521 32.4404 79.8848 32.6338 79.75 32.7803C79.6211 32.9268 79.4336 33 79.1875 33H75.5137C75.2617 33 75.0566 32.9326 74.8984 32.7979C74.7402 32.6572 74.6611 32.458 74.6611 32.2002C74.6611 32.0068 74.6963 31.8574 74.7666 31.752C74.8428 31.6406 74.9277 31.5381 75.0215 31.4443C75.1152 31.3506 75.1973 31.2363 75.2676 31.1016C75.3438 30.9668 75.3818 30.7822 75.3818 30.5479V27.2871C75.3818 27.0234 75.3408 26.8242 75.2588 26.6895C75.1768 26.5547 75.0801 26.4492 74.9688 26.373C74.8574 26.291 74.7607 26.2031 74.6787 26.1094C74.5967 26.0156 74.5557 25.875 74.5557 25.6875C74.5557 25.459 74.6318 25.2803 74.7842 25.1514C74.9365 25.0166 75.1064 24.9111 75.2939 24.835L77.1924 24.0703C77.415 23.9766 77.6406 23.8945 77.8691 23.8242C78.1035 23.7539 78.3438 23.7188 78.5898 23.7188ZM90.666 33.2549C89.6641 33.2549 88.873 33.0234 88.293 32.5605C87.7188 32.0918 87.4316 31.3301 87.4316 30.2754V26.4521C87.4316 26.2002 87.376 26.0127 87.2646 25.8896C87.1533 25.7666 87.0244 25.667 86.8779 25.5908C86.7314 25.5088 86.6025 25.4121 86.4912 25.3008C86.3799 25.1836 86.3242 25.0078 86.3242 24.7734C86.3242 24.5332 86.4092 24.3457 86.5791 24.2109C86.749 24.0703 86.9482 24 87.1768 24H87.5723C87.7422 24 87.9092 23.915 88.0732 23.7451C88.2432 23.5693 88.4131 23.3525 88.583 23.0947C88.7588 22.8369 88.9404 22.582 89.1279 22.3301C89.3213 22.0723 89.5264 21.8584 89.7432 21.6885C89.96 21.5127 90.1973 21.4248 90.4551 21.4248C90.748 21.4248 90.9766 21.5068 91.1406 21.6709C91.3047 21.835 91.3867 22.0635 91.3867 22.3564V24H93.3818C93.6045 24 93.7949 24.0527 93.9531 24.1582C94.1113 24.2637 94.1904 24.4395 94.1904 24.6855C94.1904 25.0137 94.085 25.2627 93.874 25.4326C93.6689 25.6025 93.4199 25.7168 93.127 25.7754C92.834 25.8281 92.5586 25.8545 92.3008 25.8545H91.3867V29.335C91.3867 29.6221 91.4424 29.8945 91.5537 30.1523C91.665 30.4043 91.8936 30.5303 92.2393 30.5303C92.4678 30.5303 92.6611 30.4658 92.8193 30.3369C92.9834 30.2021 93.1357 30.0703 93.2764 29.9414C93.4229 29.8125 93.5781 29.748 93.7422 29.748C93.8945 29.748 94 29.8213 94.0586 29.9678C94.123 30.1143 94.1553 30.2461 94.1553 30.3633C94.1553 30.9551 93.9766 31.4678 93.6191 31.9014C93.2617 32.335 92.8135 32.6689 92.2744 32.9033C91.7412 33.1377 91.2051 33.2549 90.666 33.2549ZM99.0156 23.7188C99.2559 23.7188 99.4404 23.8008 99.5693 23.9648C99.7041 24.1289 99.7715 24.3252 99.7715 24.5537V30.3545C99.7715 30.5186 99.7773 30.6855 99.7891 30.8555C99.8066 31.0195 99.874 31.1631 99.9912 31.2861C100.144 31.4502 100.27 31.5791 100.369 31.6729C100.475 31.7666 100.527 31.9424 100.527 32.2002C100.527 32.458 100.445 32.6572 100.281 32.7979C100.123 32.9326 99.918 33 99.666 33H95.9307C95.6787 33 95.4707 32.9326 95.3066 32.7979C95.1484 32.6631 95.0693 32.4639 95.0693 32.2002C95.0693 31.9482 95.1191 31.7725 95.2188 31.6729C95.3184 31.5674 95.4473 31.4385 95.6055 31.2861C95.7227 31.1689 95.7871 31.0225 95.7988 30.8467C95.8164 30.6709 95.8252 30.5068 95.8252 30.3545V27.2871C95.8252 27.1699 95.8164 27.0498 95.7988 26.9268C95.7812 26.7979 95.7314 26.6895 95.6494 26.6016C95.626 26.5723 95.5967 26.5488 95.5615 26.5312C95.5322 26.5137 95.5059 26.4932 95.4824 26.4697C95.3535 26.335 95.2334 26.2266 95.1221 26.1445C95.0166 26.0566 94.9639 25.9043 94.9639 25.6875C94.9639 25.4531 95.0371 25.2715 95.1836 25.1426C95.3301 25.0137 95.5029 24.9111 95.7021 24.835L97.6006 24.0703C97.8232 23.9824 98.0547 23.9033 98.2949 23.833C98.5352 23.7568 98.7754 23.7188 99.0156 23.7188ZM97.6973 23.6836C97.3223 23.6836 96.9443 23.6279 96.5635 23.5166C96.1826 23.4053 95.8633 23.2207 95.6055 22.9629C95.3535 22.6992 95.2275 22.3447 95.2275 21.8994C95.2275 21.4541 95.3564 21.1055 95.6143 20.8535C95.8721 20.5957 96.1914 20.4141 96.5723 20.3086C96.9531 20.2031 97.3281 20.1504 97.6973 20.1504C98.0664 20.1504 98.4414 20.2031 98.8223 20.3086C99.209 20.4141 99.5312 20.5957 99.7891 20.8535C100.053 21.1055 100.185 21.4541 100.185 21.8994C100.185 22.3506 100.056 22.708 99.7979 22.9717C99.54 23.2295 99.2178 23.4141 98.8311 23.5254C98.4502 23.6309 98.0723 23.6836 97.6973 23.6836ZM106.68 26.9531H109.896C110.066 26.9531 110.21 26.9941 110.327 27.0762C110.45 27.1523 110.512 27.2842 110.512 27.4717C110.512 27.6006 110.488 27.7295 110.441 27.8584C110.4 27.9873 110.362 28.1162 110.327 28.2451C110.274 28.4326 110.213 28.626 110.143 28.8252C110.072 29.0186 109.973 29.1826 109.844 29.3174C109.715 29.4463 109.527 29.5107 109.281 29.5107H106.056C105.886 29.5107 105.739 29.4727 105.616 29.3965C105.499 29.3145 105.44 29.1797 105.44 28.9922C105.44 28.8281 105.464 28.6699 105.511 28.5176C105.563 28.3652 105.619 28.2158 105.678 28.0693V28.0518C105.701 28.0166 105.719 27.9639 105.73 27.8936C105.777 27.6475 105.877 27.4307 106.029 27.2432C106.188 27.0498 106.404 26.9531 106.68 26.9531ZM115.759 32.042C115.759 31.7373 115.82 31.5117 115.943 31.3652C116.066 31.2188 116.21 31.0986 116.374 31.0049C116.538 30.9111 116.682 30.8057 116.805 30.6885C116.928 30.5654 116.989 30.3779 116.989 30.126V23.71C116.989 23.4521 116.928 23.2617 116.805 23.1387C116.682 23.0156 116.538 22.9102 116.374 22.8223C116.21 22.7285 116.066 22.6084 115.943 22.4619C115.82 22.3154 115.759 22.0928 115.759 21.7939C115.759 21.4658 115.855 21.2256 116.049 21.0732C116.248 20.915 116.503 20.8359 116.813 20.8359H122.052C123.364 20.8359 124.542 21.1025 125.585 21.6357C126.628 22.1631 127.451 22.916 128.055 23.8945C128.664 24.873 128.969 26.0391 128.969 27.3926C128.969 28.5586 128.696 29.5605 128.151 30.3984C127.606 31.2363 126.874 31.8809 125.954 32.332C125.034 32.7773 124.015 33 122.896 33H116.813C116.497 33 116.242 32.9238 116.049 32.7715C115.855 32.6191 115.759 32.376 115.759 32.042ZM122.482 31.04C122.916 31.04 123.268 30.9082 123.537 30.6445C123.807 30.3809 124.012 30.0498 124.152 29.6514C124.299 29.2529 124.398 28.8398 124.451 28.4121C124.504 27.9844 124.53 27.6094 124.53 27.2871C124.53 26.8359 124.489 26.3525 124.407 25.8369C124.325 25.3154 124.179 24.8262 123.968 24.3691C123.763 23.9062 123.476 23.5283 123.106 23.2354C122.743 22.9424 122.274 22.7959 121.7 22.7959H121.313V29.6689C121.313 30.0674 121.396 30.3955 121.56 30.6533C121.729 30.9111 122.037 31.04 122.482 31.04ZM133.996 23.7188C134.236 23.7188 134.421 23.8008 134.55 23.9648C134.685 24.1289 134.752 24.3252 134.752 24.5537V30.3545C134.752 30.5186 134.758 30.6855 134.77 30.8555C134.787 31.0195 134.854 31.1631 134.972 31.2861C135.124 31.4502 135.25 31.5791 135.35 31.6729C135.455 31.7666 135.508 31.9424 135.508 32.2002C135.508 32.458 135.426 32.6572 135.262 32.7979C135.104 32.9326 134.898 33 134.646 33H130.911C130.659 33 130.451 32.9326 130.287 32.7979C130.129 32.6631 130.05 32.4639 130.05 32.2002C130.05 31.9482 130.1 31.7725 130.199 31.6729C130.299 31.5674 130.428 31.4385 130.586 31.2861C130.703 31.1689 130.768 31.0225 130.779 30.8467C130.797 30.6709 130.806 30.5068 130.806 30.3545V27.2871C130.806 27.1699 130.797 27.0498 130.779 26.9268C130.762 26.7979 130.712 26.6895 130.63 26.6016C130.606 26.5723 130.577 26.5488 130.542 26.5312C130.513 26.5137 130.486 26.4932 130.463 26.4697C130.334 26.335 130.214 26.2266 130.103 26.1445C129.997 26.0566 129.944 25.9043 129.944 25.6875C129.944 25.4531 130.018 25.2715 130.164 25.1426C130.311 25.0137 130.483 24.9111 130.683 24.835L132.581 24.0703C132.804 23.9824 133.035 23.9033 133.275 23.833C133.516 23.7568 133.756 23.7188 133.996 23.7188ZM132.678 23.6836C132.303 23.6836 131.925 23.6279 131.544 23.5166C131.163 23.4053 130.844 23.2207 130.586 22.9629C130.334 22.6992 130.208 22.3447 130.208 21.8994C130.208 21.4541 130.337 21.1055 130.595 20.8535C130.853 20.5957 131.172 20.4141 131.553 20.3086C131.934 20.2031 132.309 20.1504 132.678 20.1504C133.047 20.1504 133.422 20.2031 133.803 20.3086C134.189 20.4141 134.512 20.5957 134.77 20.8535C135.033 21.1055 135.165 21.4541 135.165 21.8994C135.165 22.3506 135.036 22.708 134.778 22.9717C134.521 23.2295 134.198 23.4141 133.812 23.5254C133.431 23.6309 133.053 23.6836 132.678 23.6836ZM142.214 33.1846H140.843C140.462 33.1846 140.154 33.0703 139.92 32.8418C139.691 32.6133 139.507 32.3379 139.366 32.0156L136.896 26.3994C136.803 26.1943 136.724 26.0361 136.659 25.9248C136.595 25.8135 136.472 25.6846 136.29 25.5381C136.155 25.4268 136.05 25.3213 135.974 25.2217C135.903 25.1221 135.868 24.9785 135.868 24.791C135.868 24.5273 135.953 24.3311 136.123 24.2021C136.299 24.0674 136.51 24 136.756 24H141.493C141.739 24 141.933 24.0703 142.073 24.2109C142.214 24.3516 142.284 24.5449 142.284 24.791C142.284 25.002 142.229 25.1631 142.117 25.2744C142.006 25.3857 141.877 25.4824 141.73 25.5645C141.584 25.6406 141.455 25.7314 141.344 25.8369C141.232 25.9424 141.177 26.0977 141.177 26.3027C141.177 26.4316 141.191 26.5605 141.221 26.6895C141.256 26.8125 141.297 26.9326 141.344 27.0498L142.688 30.4951L143.98 27.1904C144.027 27.0615 144.065 26.9326 144.095 26.8037C144.13 26.6689 144.147 26.5342 144.147 26.3994C144.147 26.165 144.092 25.9922 143.98 25.8809C143.875 25.7637 143.749 25.667 143.603 25.5908C143.456 25.5146 143.327 25.4209 143.216 25.3096C143.11 25.1924 143.058 25.0195 143.058 24.791C143.058 24.5273 143.14 24.3311 143.304 24.2021C143.468 24.0674 143.676 24 143.928 24H146.362C146.614 24 146.822 24.0645 146.986 24.1934C147.156 24.3223 147.241 24.5215 147.241 24.791C147.241 25.0078 147.2 25.166 147.118 25.2656C147.042 25.3594 146.928 25.4736 146.775 25.6084C146.553 25.8076 146.395 25.9893 146.301 26.1533C146.213 26.3174 146.113 26.5342 146.002 26.8037C145.627 27.6885 145.255 28.5791 144.886 29.4756C144.517 30.3662 144.124 31.248 143.708 32.1211C143.55 32.4434 143.356 32.7012 143.128 32.8945C142.899 33.0879 142.595 33.1846 142.214 33.1846ZM151.996 23.7188C152.963 23.7188 153.81 23.918 154.536 24.3164C155.269 24.7148 155.84 25.2744 156.25 25.9951C156.66 26.7158 156.865 27.5625 156.865 28.5352C156.865 29.4902 156.64 30.3223 156.188 31.0312C155.737 31.7344 155.131 32.2822 154.369 32.6748C153.613 33.0615 152.772 33.2549 151.847 33.2549C150.874 33.2549 150.021 33.0557 149.289 32.6572C148.557 32.2529 147.985 31.6875 147.575 30.9609C147.171 30.2285 146.969 29.376 146.969 28.4033C146.969 27.4541 147.197 26.6279 147.654 25.9248C148.111 25.2217 148.721 24.6797 149.482 24.2988C150.244 23.9121 151.082 23.7188 151.996 23.7188ZM152.497 31.3125C152.644 31.3125 152.746 31.2363 152.805 31.084C152.869 30.9316 152.91 30.7646 152.928 30.583C152.945 30.3955 152.954 30.252 152.954 30.1523C152.954 29.8184 152.928 29.4873 152.875 29.1592C152.822 28.8252 152.755 28.4971 152.673 28.1748C152.644 28.0459 152.588 27.8467 152.506 27.5771C152.424 27.3018 152.324 27.0146 152.207 26.7158C152.09 26.417 151.961 26.1621 151.82 25.9512C151.68 25.7402 151.53 25.6348 151.372 25.6348C151.237 25.6348 151.138 25.7109 151.073 25.8633C151.015 26.0156 150.977 26.1855 150.959 26.373C150.941 26.5547 150.933 26.6924 150.933 26.7861C150.933 26.9443 150.956 27.1992 151.003 27.5508C151.05 27.8965 151.117 28.2832 151.205 28.7109C151.299 29.1387 151.41 29.5518 151.539 29.9502C151.668 30.3428 151.812 30.668 151.97 30.9258C152.134 31.1836 152.31 31.3125 152.497 31.3125ZM162.552 27.7881V30.3545C162.552 30.6943 162.59 30.9229 162.666 31.04C162.748 31.1572 162.959 31.251 163.299 31.3213C163.598 31.3799 163.835 31.4502 164.011 31.5322C164.192 31.6084 164.283 31.8311 164.283 32.2002C164.283 32.4639 164.204 32.6631 164.046 32.7979C163.888 32.9326 163.68 33 163.422 33H158.781C158.529 33 158.321 32.9326 158.157 32.7979C157.993 32.6631 157.911 32.4639 157.911 32.2002C157.911 31.9893 157.949 31.8311 158.025 31.7256C158.107 31.6201 158.198 31.5264 158.298 31.4443C158.403 31.3564 158.494 31.2451 158.57 31.1104C158.652 30.9697 158.693 30.7588 158.693 30.4775V27.2871C158.693 27.0234 158.646 26.8271 158.553 26.6982C158.465 26.5635 158.362 26.458 158.245 26.3818C158.134 26.3057 158.031 26.2207 157.938 26.127C157.85 26.0273 157.806 25.8809 157.806 25.6875C157.806 25.459 157.879 25.2803 158.025 25.1514C158.178 25.0166 158.351 24.9111 158.544 24.835L160.741 23.9648C160.882 23.9062 161.025 23.8506 161.172 23.7979C161.318 23.7451 161.471 23.7188 161.629 23.7188C161.834 23.7188 161.986 23.7979 162.086 23.9561C162.186 24.1084 162.253 24.2871 162.288 24.4922C162.329 24.6914 162.358 24.8672 162.376 25.0195C162.394 25.125 162.411 25.2305 162.429 25.3359C162.446 25.4414 162.461 25.5469 162.473 25.6523C162.654 25.1133 162.933 24.6562 163.308 24.2812C163.688 23.9062 164.213 23.7188 164.881 23.7188C165.355 23.7188 165.728 23.8359 165.997 24.0703C166.272 24.3047 166.469 24.6064 166.586 24.9756C166.703 25.3389 166.762 25.7256 166.762 26.1357C166.762 26.5166 166.712 26.8857 166.612 27.2432C166.513 27.5947 166.337 27.8848 166.085 28.1133C165.839 28.3418 165.49 28.4561 165.039 28.4561C164.547 28.4561 164.187 28.3799 163.958 28.2275C163.735 28.0752 163.592 27.8877 163.527 27.665C163.463 27.4424 163.428 27.2197 163.422 26.9971C163.422 26.7744 163.404 26.5869 163.369 26.4346C163.334 26.2822 163.229 26.2061 163.053 26.2061C162.895 26.2061 162.78 26.3174 162.71 26.54C162.64 26.7568 162.596 26.9912 162.578 27.2432C162.561 27.4951 162.552 27.6768 162.552 27.7881ZM175.806 26.6016C175.806 27.1523 175.606 27.5713 175.208 27.8584C174.81 28.1455 174.358 28.2891 173.854 28.2891C173.339 28.2891 172.926 28.1484 172.615 27.8672C172.305 27.5859 172.149 27.1816 172.149 26.6543C172.149 26.4141 172.117 26.1709 172.053 25.9248C171.994 25.6787 171.804 25.5557 171.481 25.5557C171.235 25.5557 171.048 25.6758 170.919 25.916C170.79 26.1562 170.702 26.4258 170.655 26.7246C170.614 27.0234 170.594 27.2637 170.594 27.4453C170.594 27.9492 170.676 28.4297 170.84 28.8867C171.004 29.3438 171.265 29.7158 171.622 30.0029C171.979 30.2842 172.442 30.4248 173.011 30.4248C173.345 30.4248 173.676 30.3457 174.004 30.1875C174.332 30.0234 174.622 29.8623 174.874 29.7041C175.126 29.5459 175.302 29.4668 175.401 29.4668C175.583 29.4668 175.703 29.54 175.762 29.6865C175.82 29.8271 175.85 29.9678 175.85 30.1084C175.85 30.6357 175.724 31.0957 175.472 31.4883C175.226 31.8809 174.897 32.209 174.487 32.4727C174.083 32.7305 173.641 32.9238 173.16 33.0527C172.686 33.1875 172.22 33.2549 171.763 33.2549C170.884 33.2549 170.093 33.0674 169.39 32.6924C168.692 32.3115 168.139 31.7812 167.729 31.1016C167.324 30.4219 167.122 29.6367 167.122 28.7461C167.122 27.7793 167.318 26.918 167.711 26.1621C168.104 25.4062 168.66 24.8115 169.381 24.3779C170.107 23.9385 170.963 23.7188 171.947 23.7188C172.387 23.7188 172.832 23.7744 173.283 23.8857C173.734 23.9912 174.15 24.1611 174.531 24.3955C174.912 24.624 175.22 24.9229 175.454 25.292C175.688 25.6553 175.806 26.0918 175.806 26.6016ZM185.456 27.1904C185.456 27.7119 185.301 28.1074 184.99 28.377C184.686 28.6465 184.281 28.7812 183.777 28.7812H180.235C180.37 29.2852 180.61 29.71 180.956 30.0557C181.302 30.3955 181.8 30.5654 182.45 30.5654C182.708 30.5654 182.963 30.5127 183.215 30.4072C183.473 30.2959 183.713 30.167 183.936 30.0205C184.164 29.874 184.363 29.748 184.533 29.6426C184.703 29.5312 184.832 29.4756 184.92 29.4756C185.09 29.4756 185.213 29.5371 185.289 29.6602C185.365 29.7773 185.403 29.9121 185.403 30.0645C185.403 30.5977 185.277 31.0664 185.025 31.4707C184.779 31.8691 184.451 32.2002 184.041 32.4639C183.637 32.7275 183.191 32.9238 182.705 33.0527C182.225 33.1875 181.75 33.2549 181.281 33.2549C180.361 33.2549 179.55 33.0645 178.847 32.6836C178.144 32.3027 177.593 31.7695 177.194 31.084C176.802 30.3926 176.605 29.5811 176.605 28.6494C176.605 27.6533 176.796 26.7861 177.177 26.0479C177.563 25.3096 178.117 24.7383 178.838 24.334C179.559 23.9238 180.423 23.7188 181.431 23.7188C182.128 23.7188 182.781 23.8506 183.391 24.1143C184.006 24.3779 184.504 24.7676 184.885 25.2832C185.266 25.7988 185.456 26.4346 185.456 27.1904ZM180.077 27.4277C180.077 27.4922 180.077 27.5566 180.077 27.6211H180.991C181.214 27.6211 181.366 27.5713 181.448 27.4717C181.53 27.3662 181.571 27.208 181.571 26.9971C181.571 26.8564 181.554 26.6719 181.519 26.4434C181.483 26.2148 181.413 26.0098 181.308 25.8281C181.208 25.6465 181.062 25.5557 180.868 25.5557C180.692 25.5557 180.552 25.6289 180.446 25.7754C180.341 25.916 180.262 26.0947 180.209 26.3115C180.156 26.5225 180.121 26.7305 180.104 26.9355C180.086 27.1406 180.077 27.3047 180.077 27.4277Z" fill="#1A3D94"/>
<path d="M41 35.9285L41.4744 36.8799C41.3278 36.9588 41.1651 37 41 37C40.8349 37 40.6722 36.9588 40.5256 36.8799L40.5146 36.8742L40.4899 36.8599C40.3459 36.7826 40.2038 36.7016 40.0636 36.6171C38.3878 35.6261 36.8067 34.4714 35.3419 33.1685C32.8119 30.9014 30 27.5 30 23.4285C30 19.6228 32.8682 17 35.8438 17C37.9709 17 39.8354 18.1457 41 19.8857C42.1646 18.1457 44.0291 17 46.1562 17C49.1318 17 52 19.6228 52 23.4285C52 27.5 49.1881 30.9014 46.6581 33.1685C45.0691 34.58 43.3439 35.817 41.5101 36.8599L41.4854 36.8742L41.4771 36.8785H41.4744L41 35.9285ZM35.8438 19.1428C34.0068 19.1428 32.0625 20.8057 32.0625 23.4285C32.0625 26.5 34.235 29.3485 36.6894 31.5457C38.0285 32.7356 39.4716 33.7931 41 34.7042C42.5284 33.7931 43.9715 32.7356 45.3106 31.5457C47.765 29.3485 49.9375 26.5 49.9375 23.4285C49.9375 20.8057 47.9932 19.1428 46.1562 19.1428C44.2684 19.1428 42.5689 20.5514 41.9914 22.6514C41.9306 22.8759 41.8008 23.0737 41.6218 23.2145C41.4429 23.3554 41.2245 23.4316 41 23.4316C40.7755 23.4316 40.5571 23.3554 40.3782 23.2145C40.1992 23.0737 40.0694 22.8759 40.0086 22.6514C39.4311 20.5514 37.7316 19.1428 35.8438 19.1428Z" fill="#1A3D94"/>
<g clip-path="url(#clip0_6_594)">
<path d="M223.372 22.625C222.799 21.011 221.916 19.5247 220.772 18.25C218.367 15.5668 214.878 13.875 211 13.875C207.122 13.875 203.632 15.5668 201.228 18.25C200.084 19.5247 199.201 21.011 198.628 22.625C198.142 23.9939 197.875 25.4661 197.875 27C197.875 28.5339 198.141 30.0061 198.628 31.375C199.201 32.9888 200.084 34.4751 201.227 35.75C203.632 38.4332 207.122 40.125 211 40.125C214.878 40.125 218.368 38.4332 220.773 35.75C221.916 34.4749 222.799 32.9887 223.373 31.375C223.859 30.0061 224.125 28.5339 224.125 27C224.125 25.4661 223.859 23.9939 223.372 22.625ZM200.336 27C200.336 25.4399 200.682 23.9616 201.288 22.625C202.085 20.8647 203.344 19.353 204.931 18.25C206.338 17.2717 207.985 16.6155 209.77 16.4094V26.3866L202.599 33.5564C202.073 32.8844 201.63 32.1521 201.279 31.375C200.656 30.0006 200.335 28.5089 200.336 27ZM209.77 37.5914C207.776 37.3611 205.888 36.5696 204.325 35.309L209.769 29.8661L209.77 37.5914ZM212.231 37.5914V29.8661L217.674 35.309C216.112 36.5694 214.224 37.3608 212.231 37.5914ZM219.401 33.5564L212.231 26.3866V16.4094C214.016 16.6155 215.662 17.2717 217.068 18.25C218.655 19.353 219.915 20.8647 220.713 22.625C221.338 23.9985 221.663 25.49 221.664 26.9991C221.665 28.5083 221.344 30.0004 220.721 31.375C220.369 32.152 219.926 32.8844 219.401 33.5564Z" fill="#1A3D94"/>
</g>
<defs>
<clipPath id="clip0_6_594">
<rect width="28" height="28" fill="white" transform="translate(197 13)"/>
</clipPath>
</defs>
</svg>
