<svg width="192" height="192" viewBox="0 0 192 192" fill="none" xmlns="http://www.w3.org/2000/svg">
<path d="M186.493 64C182.303 52.1945 175.842 41.3235 167.475 32C149.888 12.3744 124.362 0 96 0C67.6352 0 42.112 12.3744 24.5248 32C16.1581 41.3235 9.69747 52.1945 5.5072 64C1.952 74.0128 0 84.7808 0 96C0 107.219 1.9488 117.987 5.504 128C9.69564 139.804 16.155 150.675 24.5184 160C42.1088 179.626 67.632 192 96 192C124.365 192 149.888 179.626 167.482 160C175.844 150.673 182.304 139.803 186.499 128C190.051 117.987 192 107.219 192 96C192 84.7808 190.051 74.0128 186.493 64ZM18 96C18 84.5888 20.5344 73.776 24.96 64C30.7959 51.1249 40.0053 40.0679 51.6128 32C61.9008 24.8448 73.9456 20.0448 87.0016 18.5376V91.5136L34.5504 143.955C30.7088 139.04 27.4677 133.684 24.896 128C20.3417 117.947 17.9904 107.036 18 96ZM87.0016 173.469C72.4158 171.784 58.6074 165.995 47.1808 156.774L86.9984 116.963L87.0016 173.469ZM105.002 173.469V116.963L144.813 156.774C133.389 165.993 119.584 171.782 105.002 173.469ZM157.45 143.955L105.002 91.5136V18.5376C118.058 20.0448 130.096 24.8448 140.384 32C151.993 40.0676 161.205 51.1246 167.043 64C171.618 74.0463 173.99 84.9551 173.999 95.9938C174.009 107.032 171.657 117.946 167.101 128C164.53 133.684 161.29 139.04 157.45 143.955Z" fill="#1A3D94"/>
</svg>
